<svg xmlns="http://www.w3.org/2000/svg" viewBox="0 0 118.97 102.25"><defs><style>.cls-1{fill:#e5529d;}</style></defs><title>資產 6</title><g id="圖層_2" data-name="圖層 2"><g id="圖層_1-2" data-name="圖層 1"><path class="cls-1" d="M37.41,19C44.94,14.25,51,8,57.2,2c2.95-2.87,6.38-2.59,8.93.65C69.65,7.12,70.89,12.37,71,18a2.53,2.53,0,0,1-.57,1.58c-1.58,1.82-3.25,3.57-5.07,5.55-.55-2.41-1-4.55-1.54-6.68-.36-1.47-.93-1.89-2.08-1.71s-1.47.7-1.14,1.82a49.83,49.83,0,0,1,2.08,17.4c-.53,8.2-2.69,15.85-8.16,22.26l-.66.75c-.16-2.16-.26-4.11-.46-6a39.81,39.81,0,0,0-5.17-15.8C45,31.6,41.74,26.21,38.5,20.78,38.17,20.21,37.83,19.65,37.41,19Z"/><path class="cls-1" d="M62.21,66.87l-5.49-6c.58-.94,1.1-1.92,1.73-2.81,5.49-7.9,7.57-16.76,7.34-26.23a6.43,6.43,0,0,1,2.33-5.37A47.11,47.11,0,0,0,82.84,2.19a3.61,3.61,0,0,1,1-1.7c.7,2.56,1.48,5.1,2.08,7.68,1.37,5.87,2.65,11.76,4,17.64a5.3,5.3,0,0,1-.8,4.22,38.57,38.57,0,0,0-6,14.86,2,2,0,0,1-2,1.89C73.54,47.6,68,51.4,65,58.39A79.12,79.12,0,0,0,62.44,66C62.37,66.19,62.32,66.42,62.21,66.87Z"/><path class="cls-1" d="M95.2,48.89a16.71,16.71,0,0,1,8.31-9.78,18.15,18.15,0,0,0,1.84-1c.86-.56,1.16-1.51.45-2.21-1.78-1.75-1.57-4-2-6.17a54.53,54.53,0,0,0-1.7-7c-.78-2.4-2.14-3.16-4.64-2.8-1.7.24-3.36.72-5.19,1.13-.5-2.29-1-4.59-1.5-6.9-.22-1-.31-2-.61-3a1.74,1.74,0,0,1,1.09-2.29A35.83,35.83,0,0,1,109,4.93c2.23.13,3.35,1.11,3.54,3.33a36.07,36.07,0,0,1-.06,5.4c-.87,12.1,1.57,23.67,5.53,35a17.45,17.45,0,0,1,.94,3.68c.32,2.83-3,5.54-5.69,4.45-5.92-2.44-11.76-5-17.63-7.58A2.15,2.15,0,0,1,95.2,48.89Z"/><path class="cls-1" d="M65,70.93c.29-2.18.41-4.27.88-6.28,1-4.37,2.87-8.32,6.41-11.25,4.37-3.63,9.48-4,14.81-3.07a75.39,75.39,0,0,1,27.05,10.78c1.07.67,2,1.49,3.27,2.38-.53.25-.9.44-1.28.6A82.19,82.19,0,0,1,93.1,69.93c-9,1-18,1-27.09,1.11C65.81,71,65.61,71,65,70.93Z"/><path class="cls-1" d="M83.26,102.25h10V73.43c-3.33.38-6.67.62-10,.77Z"/><path class="cls-1" d="M34.8,21.42l-.39-.65A3.5,3.5,0,0,1,35.56,16a62.89,62.89,0,0,0,6-4.31C20,15.41,3.48,36.09,3.48,61v41.27h10V61c0-17,9.44-31.61,22.67-37.31-.22-.37-.44-.73-.65-1.1Z"/><path class="cls-1" d="M0,61.31v40.94H2V61.31C2,34,20.73,11.53,44.51,9.22c.81-.7,1.61-1.43,2.4-2.16C20.9,8,0,32,0,61.31Z"/><path class="cls-1" d="M94.74,102.25h2V73l-2,.26Z"/><path class="cls-1" d="M92.53,24.18l2.67-.87c.69,5.39,2.24,10.71.7,16a34.4,34.4,0,0,1-3.64,7.47c-.33.57-1.58.84-2.4.83A21.69,21.69,0,0,1,86.19,47,22.94,22.94,0,0,1,88,38.66c.84-1.95,1.93-3.79,2.94-5.67.54-1,1.21-2,1.71-3A6.38,6.38,0,0,0,92.53,24.18Z"/><path class="cls-1" d="M34.68,100.88c.74-2,1.33-4,2.24-5.94,1.54-3.21,3.15-6.41,5-9.48C46.22,78.08,51.55,70.15,55,62c2.15,2.58,4.52,5,6.57,7.47C61.35,69.58,58.11,72,58,72,51.58,77.19,52.43,76.8,45.4,85.6c-2.23,3.77-6.85,9.53-8.89,13.41-.39.74-.89,1.42-1.34,2.13Z"/><path class="cls-1" d="M70.51,90.42c.22-.37.1-.79-.49-1.06a42.35,42.35,0,0,0-6.58-3c-5.17-1.41-10.26-1.1-14.87,2a30,30,0,0,0-3.17,2.86,3.72,3.72,0,0,0,.64.22l11.5.09c-4.48.4-8.69.78-12.14,1.29-1.32.2-1.53,2.8-1,4.1a6.24,6.24,0,0,0,6.09,4.33c6,.25,15.46-7.38,20.17-10.83Z"/><path class="cls-1" d="M42,76.07A10.57,10.57,0,0,0,43.8,68.3c-1.24-8.19-5.7-14.14-12.95-18A25.74,25.74,0,0,0,28,49.09l-.37.33c-.19,1.56-1,10.81-1.18,12.37A32.92,32.92,0,0,0,28,75.58,7.65,7.65,0,0,0,36,81c2-.26,4.41-2,3.78-3.94s-2.67-7.08-3.48-9c-1.16-2.78-2.75-7-4.4-10.74,1.28,2.06,2.57,4.11,3.73,6.23C37.82,67.54,39.82,71.7,42,76.07Z"/><path class="cls-1" d="M98.21,22.92l1.07-.35c.7,2.49,1.4,4.88,2.06,7.29.06.21-.06.66-.19.71s-.77.06-.86-.1a12.68,12.68,0,0,1-1.57-3.09A29.88,29.88,0,0,1,98.21,22.92Z"/><path class="cls-1" d="M99.18,38.65l.34-5.31,3.21,3Z"/></g></g></svg>