<svg xmlns="http://www.w3.org/2000/svg" viewBox="0 0 136.15 134.79"><defs><style>.cls-1{fill:#dd458b;}.cls-2{fill:#e2346e;}.cls-3{fill:#ff8dbb;}.cls-4{fill:#bf1b66;}.cls-5{fill:#e5529d;}.cls-6{fill:#ed3b84;}.cls-7{fill:#d33c88;}</style></defs><title>資產 4</title><g id="圖層_2" data-name="圖層 2"><g id="圖層_1-2" data-name="圖層 1"><path class="cls-1" d="M54.6,19C62.13,14.25,68.18,8,74.39,2c2.94-2.87,6.38-2.59,8.92.65,3.53,4.49,4.76,9.74,4.83,15.33a2.53,2.53,0,0,1-.57,1.58c-1.58,1.82-3.24,3.57-5.07,5.55-.55-2.41-1-4.55-1.53-6.68-.37-1.47-.94-1.89-2.09-1.71s-1.47.7-1.14,1.82a49.83,49.83,0,0,1,2.08,17.4c-.53,8.2-2.69,15.85-8.16,22.26l-.66.75c-.16-2.16-.25-4.11-.46-6a39.79,39.79,0,0,0-5.16-15.8c-3.16-5.48-6.46-10.87-9.7-16.3C55.35,20.21,55,19.65,54.6,19Z"/><path class="cls-2" d="M79.39,66.87l-5.48-6c.57-.94,1.09-1.92,1.72-2.81,5.5-7.9,7.57-16.76,7.35-26.23a6.4,6.4,0,0,1,2.32-5.37A47.11,47.11,0,0,0,100,2.19a3.69,3.69,0,0,1,1-1.7c.7,2.56,1.48,5.1,2.08,7.68,1.37,5.87,2.65,11.76,4,17.64a5.26,5.26,0,0,1-.8,4.22,38.73,38.73,0,0,0-6,14.86,2,2,0,0,1-2,1.89c-7.57.82-13.08,4.62-16.16,11.61A79.07,79.07,0,0,0,79.63,66C79.55,66.19,79.51,66.42,79.39,66.87Z"/><path class="cls-3" d="M112.38,48.89a16.71,16.71,0,0,1,8.31-9.78,18.15,18.15,0,0,0,1.84-1c.86-.56,1.17-1.51.46-2.21-1.78-1.75-1.58-4-2-6.17a56.2,56.2,0,0,0-1.69-7c-.79-2.4-2.15-3.16-4.65-2.8-1.7.24-3.36.72-5.19,1.13-.5-2.29-1-4.59-1.5-6.9-.21-1-.31-2-.61-3a1.75,1.75,0,0,1,1.09-2.29,35.85,35.85,0,0,1,17.72-3.89c2.23.13,3.35,1.11,3.54,3.33a34.79,34.79,0,0,1-.06,5.4c-.87,12.1,1.57,23.67,5.53,35a17.45,17.45,0,0,1,.94,3.68c.33,2.83-3,5.54-5.69,4.45-5.92-2.44-11.76-5-17.63-7.58A2.48,2.48,0,0,1,112.38,48.89Z"/><path class="cls-4" d="M82.21,70.93c.29-2.18.41-4.27.88-6.28,1-4.37,2.87-8.32,6.41-11.25,4.38-3.63,9.48-4,14.81-3.07a75.32,75.32,0,0,1,27.05,10.78c1.07.67,2,1.49,3.27,2.38-.53.25-.9.44-1.28.6a82.19,82.19,0,0,1-23.07,5.84c-9,1-18,1-27.09,1.11C83,71,82.79,71,82.21,70.93Z"/><path class="cls-5" d="M100.44,102.25h10V73.43c-3.33.38-6.67.62-10,.77Z"/><path class="cls-6" d="M111.92,102.25h2V73l-2,.26Z"/><path class="cls-5" d="M109.71,24.18l2.67-.87c.69,5.39,2.24,10.71.7,16a34.4,34.4,0,0,1-3.64,7.47c-.33.57-1.58.84-2.39.83a21.62,21.62,0,0,1-3.68-.66,22.94,22.94,0,0,1,1.78-8.32c.84-1.95,1.93-3.79,2.94-5.67.54-1,1.21-2,1.71-3A6.35,6.35,0,0,0,109.71,24.18Z"/><path class="cls-1" d="M91.86,84.81c.22-.37.09-.78-.5-1.06a43.21,43.21,0,0,0-6.57-3c-5.17-1.41-10.26-1.09-14.87,2a29.94,29.94,0,0,0-3.17,2.85,3.33,3.33,0,0,0,.64.23l11.5.08c-4.48.41-8.69.79-12.14,1.3-1.33.19-1.54,2.8-1,4.09a6.22,6.22,0,0,0,6.08,4.34c6,.25,15.46-7.39,20.17-10.83Z"/><path class="cls-2" d="M59.21,76.07A10.58,10.58,0,0,0,61,68.3c-1.25-8.19-5.71-14.14-13-18a25.74,25.74,0,0,0-2.87-1.17l-.37.33c-.19,1.56-1,10.81-1.17,12.37a32.92,32.92,0,0,0,1.59,13.79,7.65,7.65,0,0,0,8,5.38c2-.26,4.4-2,3.77-3.94s-2.67-7.08-3.48-9c-1.15-2.78-2.75-7-4.39-10.74,1.27,2.06,2.57,4.11,3.72,6.23C55,67.54,57,71.7,59.21,76.07Z"/><path class="cls-4" d="M115.39,22.92l1.07-.35c.71,2.49,1.4,4.88,2.06,7.29.06.21-.06.66-.19.71s-.76.06-.86-.1a12.68,12.68,0,0,1-1.57-3.09A32.77,32.77,0,0,1,115.39,22.92Z"/><path class="cls-7" d="M116.36,38.65l.34-5.31,3.21,3Z"/><path class="cls-4" d="M54.52,118.08a2.25,2.25,0,0,1,1.61.76,4,4,0,0,1,.79,1.61,3.33,3.33,0,0,1,1.58.29c.45.22.61.53.48.91l-.19.53c-.08.22-.14.39-.2.52-.33.83-.65,1.61-1,2.35a19.69,19.69,0,0,0-.72,2.12c-.23.77-.42,1.48-.56,2.11a2.82,2.82,0,0,0-.13,1.15,2.9,2.9,0,0,0,.77-.51,15.63,15.63,0,0,0,1.4-1.28,8.09,8.09,0,0,0,1.07-1.24A13.82,13.82,0,0,0,60.3,126a1.66,1.66,0,0,1,.93-.64,1.6,1.6,0,0,1,1,0,.87.87,0,0,1,.55.6,1.33,1.33,0,0,1-.26,1.07,11.18,11.18,0,0,0-.77,1c-.21.28-.42.59-.64.91a9.33,9.33,0,0,1-.64.83,21.57,21.57,0,0,1-2.68,2.49,4.4,4.4,0,0,1-2.33,1,2.88,2.88,0,0,1-2-.55,3.09,3.09,0,0,1-.95-1.51,6.66,6.66,0,0,1-1.67,1.45,4.13,4.13,0,0,1-2.09.64A2.77,2.77,0,0,1,46,132.37a5.37,5.37,0,0,1-.74-2.91,11.8,11.8,0,0,1,.31-2.68A12.73,12.73,0,0,1,47,123.44a13.85,13.85,0,0,1,2.17-2.79,10.38,10.38,0,0,1,2.62-1.91A5.82,5.82,0,0,1,54.52,118.08Zm-5.09,12.35a2.67,2.67,0,0,0,1.94-1.3,14.7,14.7,0,0,0,1.67-3v0c.16-.47.33-1,.53-1.48s.37-1,.52-1.51a3.63,3.63,0,0,0,.31-1.44.8.8,0,0,0-.1-.41.52.52,0,0,0-.4-.21,1.86,1.86,0,0,0-1.19.45,6.48,6.48,0,0,0-1.24,1.3,10.82,10.82,0,0,0-1.1,1.88,9.27,9.27,0,0,0-.74,2.19,4,4,0,0,0-.12.43c0,.21-.11.44-.17.7s-.13.53-.18.81a4.47,4.47,0,0,0-.08.74,1.89,1.89,0,0,0,.08.58Q49.24,130.43,49.43,130.43Z"/><path class="cls-4" d="M68.3,133.38a6.45,6.45,0,0,1-2-.27,3.51,3.51,0,0,1-1.32-.76,2.63,2.63,0,0,1-.72-1.17,4.84,4.84,0,0,1-.21-1.45,7.51,7.51,0,0,1,.19-1.67,12.38,12.38,0,0,1,.52-1.71c.22-.57.46-1.11.72-1.63s.52-1,.78-1.44a4.81,4.81,0,0,1-1.28-.5l-.08.12c-.15.26-.34.56-.54.91s-.47.82-.78,1.42l-1.28,1.94a1.49,1.49,0,0,1-.72.5,1.52,1.52,0,0,1-.83.08.81.81,0,0,1-.58-.41,1.23,1.23,0,0,1,.07-1,1.92,1.92,0,0,1,.22-.39c.09-.12.17-.25.25-.38s.34-.6.64-1.09a15.71,15.71,0,0,0,.81-1.51,10.89,10.89,0,0,0,.57-1.4c.13-.42.09-.66-.12-.74a2.32,2.32,0,0,1-.15-2.09,2.2,2.2,0,0,1,1.2-1.07,2.94,2.94,0,0,1,1.67-.12,1.82,1.82,0,0,1,1.24.72,2.27,2.27,0,0,0,.52.7c.25.23.5.44.76.64a5.29,5.29,0,0,0,.72.46l.44.22a4.3,4.3,0,0,1,1.42.56,1.6,1.6,0,0,1,.64.7,1.17,1.17,0,0,1,.06.76,2.58,2.58,0,0,1-.37.77l0,0c-.31.55-.62,1.12-.91,1.71s-.56,1.18-.8,1.77a14.89,14.89,0,0,0-.56,1.67,5.6,5.6,0,0,0-.21,1.41c0,.68.29,1,.89,1a2.16,2.16,0,0,0,1.14-.37,5.78,5.78,0,0,0,1.21-1,12.08,12.08,0,0,0,1.18-1.39c.39-.53.76-1.08,1.13-1.65v0a.59.59,0,0,1,.56-.28,2.56,2.56,0,0,1,.81.14,1.43,1.43,0,0,1,.65.41.43.43,0,0,1,.07.54q-.66,1.12-1.47,2.25a14.69,14.69,0,0,1-1.79,2,9.28,9.28,0,0,1-2.06,1.49A4.82,4.82,0,0,1,68.3,133.38Zm-6.06-6.1,0,0,.08-.15a.14.14,0,0,1,0,.06A.08.08,0,0,0,62.24,127.28Z"/><path class="cls-4" d="M82.42,118.08a2.23,2.23,0,0,1,1.61.76,3.88,3.88,0,0,1,.8,1.61,3.27,3.27,0,0,1,1.57.29c.46.22.62.53.49.91l-.2.53c-.07.22-.14.39-.19.52-.34.83-.65,1.61-1,2.35a17.71,17.71,0,0,0-.72,2.12c-.23.77-.42,1.48-.56,2.11a3.14,3.14,0,0,0-.14,1.15,2.89,2.89,0,0,0,.78-.51,17.14,17.14,0,0,0,1.4-1.28,8,8,0,0,0,1.06-1.24,14,14,0,0,0,.84-1.36,1.66,1.66,0,0,1,.93-.64,1.6,1.6,0,0,1,1,0,.86.86,0,0,1,.54.6,1.31,1.31,0,0,1-.25,1.07,9.92,9.92,0,0,0-.78,1l-.64.91a7.77,7.77,0,0,1-.64.83,20.85,20.85,0,0,1-2.67,2.49,4.4,4.4,0,0,1-2.33,1,2.88,2.88,0,0,1-2-.55,3.09,3.09,0,0,1-.95-1.51,6.84,6.84,0,0,1-1.67,1.45,4.17,4.17,0,0,1-2.1.64,2.78,2.78,0,0,1-2.68-1.08,5.37,5.37,0,0,1-.73-2.91,11.8,11.8,0,0,1,.31-2.68,13,13,0,0,1,1.41-3.34,13.89,13.89,0,0,1,2.18-2.79,10.2,10.2,0,0,1,2.62-1.91A5.78,5.78,0,0,1,82.42,118.08Zm-5.08,12.35a2.69,2.69,0,0,0,1.94-1.3,14.7,14.7,0,0,0,1.67-3v0c.15-.47.33-1,.52-1.48s.37-1,.53-1.51a3.81,3.81,0,0,0,.31-1.44.8.8,0,0,0-.1-.41.52.52,0,0,0-.41-.21,1.85,1.85,0,0,0-1.18.45,6.21,6.21,0,0,0-1.24,1.3,11.51,11.51,0,0,0-1.11,1.88,9.75,9.75,0,0,0-.74,2.19c0,.08-.06.22-.11.43s-.11.44-.18.7-.12.53-.17.81a4.47,4.47,0,0,0-.08.74,1.89,1.89,0,0,0,.08.58Q77.15,130.43,77.34,130.43Z"/><path class="cls-4" d="M96.82,118.08l.7.08a1.13,1.13,0,0,1,.59.35c.75-1.94,1.53-3.94,2.36-6s1.74-4.17,2.72-6.34a1.87,1.87,0,0,1,1.07-.64,5.43,5.43,0,0,1,1.45-.22,2.77,2.77,0,0,1,1.38.3c.35.19.43.51.25,1-1.16,2.66-2.25,5.24-3.26,7.72s-2,5-3,7.61v.27l-.62,1.55c-.26.62-.5,1.23-.72,1.81s-.4,1.13-.56,1.65c-.23.77-.42,1.48-.56,2.11a3.14,3.14,0,0,0-.14,1.15,2.89,2.89,0,0,0,.78-.51,17.14,17.14,0,0,0,1.4-1.28,7.53,7.53,0,0,0,1.06-1.24,12.28,12.28,0,0,0,.84-1.36,1.66,1.66,0,0,1,.93-.64,1.6,1.6,0,0,1,1,0,.86.86,0,0,1,.54.6,1.31,1.31,0,0,1-.25,1.07,11.18,11.18,0,0,0-.77,1c-.21.28-.43.59-.64.91a9.33,9.33,0,0,1-.64.83,21.57,21.57,0,0,1-2.68,2.49,4.4,4.4,0,0,1-2.33,1,2.88,2.88,0,0,1-2-.55,3.09,3.09,0,0,1-1-1.51,6.66,6.66,0,0,1-1.67,1.45,4.17,4.17,0,0,1-2.1.64,2.79,2.79,0,0,1-2.68-1.08,5.37,5.37,0,0,1-.73-2.91,11.8,11.8,0,0,1,.31-2.68,12.73,12.73,0,0,1,1.42-3.34,13.5,13.5,0,0,1,2.17-2.79,10.2,10.2,0,0,1,2.62-1.91,5.82,5.82,0,0,1,2.72-.66ZM91.7,130.43a2.69,2.69,0,0,0,1.94-1.3,14.7,14.7,0,0,0,1.67-3v0c.23-.73.48-1.46.74-2.22s.5-1.39.74-1.94a1.27,1.27,0,0,0-.14-.6.61.61,0,0,0-.49-.29,1.85,1.85,0,0,0-1.18.45,6.21,6.21,0,0,0-1.24,1.3,11.51,11.51,0,0,0-1.11,1.88,9.72,9.72,0,0,0-.73,2.19,4,4,0,0,0-.12.43c0,.21-.11.44-.18.7s-.12.53-.17.81a4.47,4.47,0,0,0-.08.74,1.89,1.89,0,0,0,.08.58Q91.51,130.43,91.7,130.43Z"/><path class="cls-4" d="M104.47,121c.1-.15.38-.25.83-.31a6.74,6.74,0,0,1,1.42,0,6.29,6.29,0,0,1,1.3.28c.38.12.53.27.45.42-.16.44-.32.88-.49,1.3s-.34.86-.52,1.3-.42,1.08-.62,1.61-.39,1.06-.55,1.58c-.26.77-.46,1.48-.62,2.11s-.18,1-.07,1.11c.38-.05,1.1-.64,2.13-1.75a5.94,5.94,0,0,0,.85-1c.26-.35.51-.7.74-1.07,0,0,0,0,0-.11l.27-.43a.72.72,0,0,1,.6-.23,1.74,1.74,0,0,1,.78.17,1.58,1.58,0,0,1,.6.47.52.52,0,0,1,.08.6.7.7,0,0,0-.14.21.69.69,0,0,1-.13.21h0a10.79,10.79,0,0,1-.78,1.17c-.31.41-.62.8-.93,1.16a16.58,16.58,0,0,1-2.62,2.53,4.45,4.45,0,0,1-2.31,1,2.7,2.7,0,0,1-2.45-1,4.42,4.42,0,0,1-.69-2.56,9.5,9.5,0,0,1,.15-1.63c.1-.57.22-1.11.35-1.63a12.84,12.84,0,0,1,.43-1.28c.18-.46.37-.92.56-1.38s.39-.89.58-1.31.36-.8.49-1.11v0l.19-.43Zm1.28-5.78a3.15,3.15,0,0,1,1.22-1.57,2.7,2.7,0,0,1,1.77-.53,1.84,1.84,0,0,1,1.51.9,1.81,1.81,0,0,1,0,1.82v0a3.35,3.35,0,0,1-1.22,1.56,2.7,2.7,0,0,1-1.81.54,1.75,1.75,0,0,1-1.55-.87,2,2,0,0,1,0-1.85Z"/><path class="cls-4" d="M114,133.53a5.59,5.59,0,0,1-3.67-1.28,4.72,4.72,0,0,1-1.42-3.49,1.32,1.32,0,0,1-.23-.33.93.93,0,0,1,0-.53,11,11,0,0,0,.49-1,9.1,9.1,0,0,1,.48-1,4.11,4.11,0,0,1,.68-.93,2.56,2.56,0,0,1,1.07-.66c.44-.6.84-1.17,1.22-1.71s.69-1,1-1.44a3.54,3.54,0,0,1,.27-1.43,2.54,2.54,0,0,1,.9-1.07,4,4,0,0,1,1.65-.64,13.11,13.11,0,0,1,2.62-.16,10.61,10.61,0,0,0-.8,2,6,6,0,0,0-.21,1.48,8.23,8.23,0,0,0,.29,2.21,17.15,17.15,0,0,0,.68,2.06,21.23,21.23,0,0,1,.68,2.11,3.56,3.56,0,0,1,0,1.89v0a.16.16,0,0,0,0,.12c0,.1,0,.16,0,.16l.06-.06.11-.22a16.5,16.5,0,0,0,1.65-1.61c.56-.6,1.08-1.21,1.57-1.8a.73.73,0,0,1,.63-.22,2.6,2.6,0,0,1,.79.18,1.56,1.56,0,0,1,.6.41.37.37,0,0,1,0,.52,18,18,0,0,1-4.73,4.91,8.91,8.91,0,0,1-5,1.69h-.68A2.67,2.67,0,0,1,114,133.53Zm-.39-8.61c-.44.57-.84,1.12-1.2,1.66s-.78,1.12-1.25,1.71a1.9,1.9,0,0,0,.12,1,2.36,2.36,0,0,0,.54.8,2.38,2.38,0,0,0,.82.5,2.56,2.56,0,0,0,.93.18,1.3,1.3,0,0,0,1-.57,2.05,2.05,0,0,0,.35-1.37,3.47,3.47,0,0,0-.08-1,12.44,12.44,0,0,0-.31-1.32c-.15-.65-.3-1.36-.42-2.14Zm6,4.73q.15-.22.15-.12Z"/><path class="cls-5" d="M30.66,61c0-17,9.44-31.61,22.68-37.31l-.66-1.1c-.22-.37-.45-.74-.69-1.15l-.39-.65A3.49,3.49,0,0,1,52.74,16a61.65,61.65,0,0,0,6-4.31C37.2,15.41,20.66,36.09,20.66,61V86.2a58.15,58.15,0,0,1,10-1.25Z"/><path class="cls-6" d="M19.18,61.31C19.18,34,37.91,11.53,61.69,9.22c.81-.7,1.61-1.43,2.4-2.16C38.08,8,17.18,32,17.18,61.31V87.08c.66-.19,1.32-.37,2-.54Z"/><path class="cls-4" d="M72.15,62c-3.42,8.17-8.75,16.1-13.09,23.48q-1.34,2.28-2.55,4.64c.76.41,1.49.84,2.18,1.28,1.48-2.09,2.92-4.12,3.89-5.78,7-8.8,6.19-8.41,12.61-13.58.1,0,3.35-2.44,3.52-2.57C76.66,67,74.29,64.56,72.15,62Z"/><path class="cls-4" d="M27.62,93.4a8.7,8.7,0,0,1,2.89.57,4.69,4.69,0,0,1,1.74,1.22A3.26,3.26,0,0,1,33,96.71a3.68,3.68,0,0,1,0,1.48q-1,4.09-2.31,9.11t-2.63,10a24,24,0,0,0,5.44-.64,29.35,29.35,0,0,0,5.31-1.79,26.53,26.53,0,0,0,4.79-2.77,20,20,0,0,0,3.79-3.57,14.08,14.08,0,0,0,2.36-4.22,10.23,10.23,0,0,0,.49-4.7,7,7,0,0,0-3.91-5.4c-2.36-1.31-5.58-2-9.68-2a38.42,38.42,0,0,0-13.45,2,32.39,32.39,0,0,0-9.37,5,15.65,15.65,0,0,0-4.9,6.12c-.86,2.12-.84,3.9.07,5.31a13.9,13.9,0,0,1-5.31-1.36,7.85,7.85,0,0,1-2.89-2.43A4.52,4.52,0,0,1,0,104a4.75,4.75,0,0,1,1-2.66A18.48,18.48,0,0,1,6.7,96.75a42.47,42.47,0,0,1,8.43-3.5A69,69,0,0,1,25.45,91a73.76,73.76,0,0,1,11.36-.72,44.75,44.75,0,0,1,8.77.84A30.52,30.52,0,0,1,53,93.52a14.23,14.23,0,0,1,5,3.83,7.1,7.1,0,0,1,1.6,5.17,10,10,0,0,1-2.36,5.5,20.74,20.74,0,0,1-5.08,4.37,33.86,33.86,0,0,1-6.69,3.19,47.7,47.7,0,0,1-7.06,1.94,36,36,0,0,1-6.23.68,9.82,9.82,0,0,1-4.25-.65l-4.23,17.24a21.13,21.13,0,0,1-3.64-.72,8,8,0,0,1-2.74-1.33,4.06,4.06,0,0,1-1.44-2,4.44,4.44,0,0,1,.3-2.92c.51-1.42,1.71-6.91,2.6-9.5S20.68,113,21.7,110s2-5.93,3.07-8.89S26.76,95.58,27.62,93.4Z"/></g></g></svg>