<svg xmlns="http://www.w3.org/2000/svg" viewBox="0 0 159.34 159.34"><defs><style>.cls-1{fill:#e5529d;}.cls-2{fill:#fff;}</style></defs><title>資產 1</title><g id="圖層_2" data-name="圖層 2"><g id="圖層_1-2" data-name="圖層 1"><rect class="cls-1" width="159.34" height="159.34" rx="19.23"/><path class="cls-2" d="M60.6,46.51c7.53-4.71,13.59-10.93,19.79-17,2.94-2.88,6.38-2.6,8.92.64,3.53,4.5,4.77,9.74,4.84,15.33a2.65,2.65,0,0,1-.57,1.58C92,48.9,90.33,50.65,88.5,52.63,88,50.22,87.5,48.08,87,46c-.36-1.48-.93-1.9-2.09-1.72s-1.46.71-1.13,1.83a50,50,0,0,1,2.08,17.4c-.53,8.19-2.69,15.85-8.17,22.25-.17.21-.35.41-.65.76-.17-2.17-.26-4.12-.46-6.06a40,40,0,0,0-5.17-15.8c-3.15-5.48-6.45-10.87-9.69-16.3Z"/><path class="cls-2" d="M85.39,94.42l-5.48-6c.58-.94,1.1-1.91,1.72-2.81,5.5-7.89,7.58-16.75,7.35-26.23A6.44,6.44,0,0,1,91.3,54,47,47,0,0,0,106,29.74a3.54,3.54,0,0,1,1-1.7c.69,2.56,1.47,5.09,2.08,7.67,1.36,5.87,2.65,11.76,4,17.64a5.35,5.35,0,0,1-.8,4.23,38.69,38.69,0,0,0-6,14.86,2,2,0,0,1-2,1.89c-7.57.81-13.07,4.61-16.16,11.61-1.06,2.42-1.68,5-2.5,7.57C85.56,93.74,85.51,94,85.39,94.42Z"/><path class="cls-2" d="M118.38,76.43a16.77,16.77,0,0,1,8.32-9.77c.61-.33,1.26-.62,1.83-1,.86-.57,1.17-1.51.46-2.21-1.78-1.76-1.58-4-2-6.17a54.68,54.68,0,0,0-1.7-7c-.78-2.4-2.14-3.15-4.65-2.8-1.69.24-3.36.73-5.19,1.14-.49-2.29-1-4.6-1.5-6.91-.21-1-.3-2-.6-3a1.74,1.74,0,0,1,1.09-2.3,35.92,35.92,0,0,1,17.71-3.89c2.23.13,3.35,1.11,3.54,3.33a34.92,34.92,0,0,1-.06,5.41c-.87,12.1,1.57,23.67,5.54,35a17.73,17.73,0,0,1,.93,3.68c.33,2.84-3,5.54-5.69,4.45-5.91-2.43-11.76-5-17.63-7.58A2.48,2.48,0,0,1,118.38,76.43Z"/><path class="cls-2" d="M88.21,98.47c.3-2.17.42-4.27.89-6.28,1-4.36,2.87-8.32,6.4-11.25,4.38-3.63,9.49-4,14.81-3.06a75,75,0,0,1,27.05,10.77c1.08.68,2.06,1.49,3.27,2.39-.52.25-.89.44-1.27.6a81.9,81.9,0,0,1-23.08,5.83c-9,1-18,1-27.08,1.11C89,98.58,88.8,98.54,88.21,98.47Z"/><path class="cls-2" d="M106.44,129.8h10V101c-3.32.38-6.66.62-10,.78Z"/><path class="cls-2" d="M58,49l-.39-.65a3.5,3.5,0,0,1,1.14-4.77,63.3,63.3,0,0,0,6-4.3C43.21,43,26.67,63.64,26.67,88.52V129.8h10V88.52c0-17,9.44-31.61,22.67-37.31l-.66-1.1Z"/><path class="cls-2" d="M23.19,88.86V129.8h2V88.86c0-27.31,18.73-49.79,42.51-52.09.81-.71,1.6-1.43,2.4-2.17C44.08,35.57,23.19,59.53,23.19,88.86Z"/><path class="cls-2" d="M117.93,129.8h2V100.52c-.66.1-1.33.18-2,.27Z"/><path class="cls-2" d="M115.72,51.72l2.67-.87c.68,5.39,2.24,10.71.69,16a35.06,35.06,0,0,1-3.63,7.47c-.33.56-1.58.84-2.4.82a20.74,20.74,0,0,1-3.67-.66,23,23,0,0,1,1.78-8.32c.83-2,1.93-3.79,2.94-5.66.54-1,1.2-2,1.71-3A6.39,6.39,0,0,0,115.72,51.72Z"/><path class="cls-2" d="M57.87,128.42c.73-2,1.33-4,2.24-5.93,1.54-3.22,3.15-6.41,5-9.48,4.34-7.39,9.66-15.31,13.08-23.49,2.15,2.58,4.52,5,6.57,7.47-.18.14-3.42,2.53-3.52,2.58-6.43,5.16-5.58,4.77-12.61,13.58-2.23,3.77-6.85,9.53-8.9,13.41-.39.74-.89,1.42-1.34,2.13Z"/><path class="cls-2" d="M93.7,118c.22-.37.09-.78-.5-1.06a43.21,43.21,0,0,0-6.57-3c-5.17-1.41-10.26-1.09-14.87,2a28.88,28.88,0,0,0-3.17,2.85,3.09,3.09,0,0,0,.64.23l11.5.08c-4.48.41-8.69.78-12.14,1.3-1.33.19-1.54,2.79-1,4.09a6.22,6.22,0,0,0,6.08,4.34c6.05.25,15.46-7.39,20.17-10.83Z"/><path class="cls-2" d="M65.22,103.62A10.59,10.59,0,0,0,67,95.85c-1.25-8.19-5.7-14.14-12.95-18-.91-.48-1.91-.78-2.87-1.17L50.8,77c-.19,1.56-1,10.8-1.18,12.37a32.88,32.88,0,0,0,1.6,13.78,7.65,7.65,0,0,0,8,5.38c2-.25,4.41-2,3.77-3.93s-2.67-7.09-3.47-9c-1.16-2.77-2.76-7-4.4-10.73,1.27,2.06,2.57,4.1,3.72,6.23C61,95.08,63,99.24,65.22,103.62Z"/><path class="cls-2" d="M121.4,50.47l1.06-.36c.71,2.49,1.41,4.89,2.06,7.29.06.22-.06.67-.19.71s-.76.06-.85-.1a12.51,12.51,0,0,1-1.57-3.09A29.59,29.59,0,0,1,121.4,50.47Z"/><path class="cls-2" d="M122.37,66.2l.34-5.31,3.2,3Z"/></g></g></svg>